<svg width="45" height="35" viewBox="0 0 45 35" fill="none" xmlns="http://www.w3.org/2000/svg">
<path d="M25.4932 4.1153C30.4204 -1.10888 38.7019 -1.39773 43.9902 3.46979C44.352 3.8028 44.6899 4.15171 45.0049 4.51373C44.455 6.41386 43.4543 8.21766 41.9971 9.76276C37.1316 14.9215 28.9963 15.2678 23.7012 10.5889V33.8008C23.7009 34.463 23.1642 35.0001 22.502 35.0001C21.8398 35 21.303 34.463 21.3027 33.8008V10.5899C16.0075 15.2677 7.87292 14.9212 3.00781 9.76276C1.55103 8.2181 0.549955 6.41521 0 4.51569C0.315424 4.153 0.654181 3.80337 1.0166 3.46979C6.305 -1.39771 14.5865 -1.10904 19.5137 4.1153C20.9359 5.62333 21.9208 7.37863 22.4785 9.22858C22.4863 9.22843 22.4941 9.2276 22.502 9.2276C22.5101 9.2276 22.5183 9.22842 22.5264 9.22858C23.0841 7.37843 24.0708 5.62346 25.4932 4.1153Z" fill="#52AB56"/>
</svg>
