<svg width="6" height="12" viewBox="0 0 6 12" fill="none" xmlns="http://www.w3.org/2000/svg">
<path d="M5.22638 0.897971L0.13935 5.93589C0.0500037 6.02438 0 6.14306 0 6.26663C0 6.3902 0.0500037 6.50888 0.13935 6.59737L5.22638 11.6372C5.268 11.6785 5.31776 11.7113 5.37272 11.7336C5.42769 11.756 5.48674 11.7676 5.5464 11.7676C5.60606 11.7676 5.66512 11.756 5.72008 11.7336C5.77505 11.7113 5.82481 11.6785 5.86643 11.6372C5.95206 11.5526 6 11.439 6 11.3207C6 11.2024 5.95206 11.0888 5.86643 11.0041L1.08274 6.26663L5.86643 1.53008C5.95177 1.4455 5.99952 1.3321 5.99952 1.21403C5.99952 1.09595 5.95177 0.98255 5.86643 0.897971C5.82481 0.856705 5.77505 0.823907 5.72008 0.801511C5.66512 0.779116 5.60606 0.767578 5.5464 0.767578C5.48674 0.767578 5.42769 0.779116 5.37272 0.801511C5.31776 0.823907 5.268 0.856705 5.22638 0.897971Z" fill="black"/>
</svg>
