<svg width="17" height="16" viewBox="0 0 17 16" fill="none" xmlns="http://www.w3.org/2000/svg">
<path d="M5.09961 0.652344V2.56152H11.9004V0.652344H13.0332V2.56152H16.1504C16.3756 2.56189 16.5917 2.64846 16.751 2.80176C16.9101 2.95511 16.9997 3.1631 17 3.37988V14.834C16.9997 15.0509 16.9103 15.2597 16.751 15.4131C16.5917 15.5663 16.3756 15.652 16.1504 15.6523H0.849609C0.62443 15.652 0.408271 15.5663 0.249023 15.4131C0.0896784 15.2597 0.000281158 15.0509 0 14.834V3.37988C0.000280983 3.1631 0.0898643 2.95511 0.249023 2.80176C0.408276 2.64846 0.624403 2.56189 0.849609 2.56152H3.9668V0.652344H5.09961ZM1.13379 3.65234V14.5615H15.8662V3.65234H13.0332V5.01562H11.9004V3.65234H5.09961V5.01562H3.9668V3.65234H1.13379ZM4.53418 13.1973H3.40039V12.1064H4.53418V13.1973ZM7.65039 13.1973H6.5166V12.1064H7.65039V13.1973ZM10.4834 13.1973H9.35059V12.1064H10.4834V13.1973ZM13.6006 13.1973H12.4668V12.1064H13.6006V13.1973ZM4.53418 10.7422H3.40039V9.65137H4.53418V10.7422ZM7.65039 10.7422H6.5166V9.65137H7.65039V10.7422ZM10.4834 10.7422H9.35059V9.65137H10.4834V10.7422ZM13.6006 10.7422H12.4668V9.65137H13.6006V10.7422ZM4.53418 8.28809H3.40039V7.19727H4.53418V8.28809ZM7.65039 8.28809H6.5166V7.19727H7.65039V8.28809ZM10.4834 8.28809H9.35059V7.19727H10.4834V8.28809ZM13.6006 8.28809H12.4668V7.19727H13.6006V8.28809Z" fill="black"/>
</svg>
