<svg width="18" height="19" viewBox="0 0 18 19" fill="none" xmlns="http://www.w3.org/2000/svg">
<path fill-rule="evenodd" clip-rule="evenodd" d="M4.44857 18.5526C4.21461 18.4547 4.01483 18.2898 3.87436 18.0786C3.7339 17.8674 3.65902 17.6194 3.65914 17.3658V15.2842H2.57143C1.88944 15.2842 1.23539 15.0133 0.753154 14.531C0.270918 14.0488 0 13.3947 0 12.7127V3.22385C0 2.54184 0.270918 1.88777 0.753154 1.40552C1.23539 0.923269 1.88944 0.652344 2.57143 0.652344H15.4286C16.1106 0.652344 16.7646 0.923269 17.2468 1.40552C17.7291 1.88777 18 2.54184 18 3.22385V12.7127C18 13.3947 17.7291 14.0488 17.2468 14.531C16.7646 15.0133 16.1106 15.2842 15.4286 15.2842H8.88428L5.85 18.2813C5.66945 18.4597 5.44015 18.5806 5.19099 18.6289C4.94183 18.6771 4.68267 18.6506 4.44857 18.5526ZM4.94614 15.2842C4.94614 14.9432 4.81068 14.6162 4.56957 14.375C4.32845 14.1339 4.00142 13.9984 3.66043 13.9984H2.57143C2.23044 13.9984 1.90341 13.863 1.66229 13.6219C1.42117 13.3807 1.28571 13.0537 1.28571 12.7127V3.22385C1.28571 2.88284 1.42117 2.55581 1.66229 2.31468C1.90341 2.07356 2.23044 1.9381 2.57143 1.9381H15.4286C15.7696 1.9381 16.0966 2.07356 16.3377 2.31468C16.5788 2.55581 16.7143 2.88284 16.7143 3.22385V12.7127C16.7143 13.0537 16.5788 13.3807 16.3377 13.6219C16.0966 13.863 15.7696 13.9984 15.4286 13.9984H8.88428C8.54628 13.9988 8.22203 14.1323 7.98171 14.37L4.94486 17.3658L4.94614 15.2842Z" fill="black"/>
</svg>
