<svg width="18" height="18" viewBox="0 0 18 18" fill="none" xmlns="http://www.w3.org/2000/svg">
<path d="M9 0C13.9706 0 18 4.02944 18 9C18 13.9706 13.9706 18 9 18C4.02944 18 0 13.9706 0 9C0 4.02944 4.02944 0 9 0ZM9 1C4.58172 1 1 4.58172 1 9C1 13.4183 4.58172 17 9 17C13.4183 17 17 13.4183 17 9C17 4.58172 13.4183 1 9 1Z" fill="black"/>
<path d="M5.44895 13.3477L5 12.8987L8.55105 9.34766L5 5.79661L5.44895 5.34766L9 8.8987L12.551 5.34766L13 5.79661L9.44895 9.34766L13 12.8987L12.551 13.3477L9 9.79661L5.44895 13.3477Z" fill="black"/>
</svg>
