<svg width="18" height="19" viewBox="0 0 18 19" fill="none" xmlns="http://www.w3.org/2000/svg">
<path d="M9 0.267578C13.9706 0.267578 18 4.29702 18 9.26758C18 14.2381 13.9706 18.2676 9 18.2676C4.02944 18.2676 0 14.2381 0 9.26758C0 4.29702 4.02944 0.267578 9 0.267578ZM9 1.26758C4.58172 1.26758 1 4.8493 1 9.26758C1 13.6859 4.58172 17.2676 9 17.2676C13.4183 17.2676 17 13.6859 17 9.26758C17 4.8493 13.4183 1.26758 9 1.26758Z" fill="black"/>
<path d="M13 11.2676L9 7.26758L5 11.2676" stroke="black" stroke-linecap="round" stroke-linejoin="round"/>
</svg>
