<svg width="24" height="24" viewBox="0 0 24 24" fill="none" xmlns="http://www.w3.org/2000/svg">
<path d="M11.9997 12.7087L6.75374 17.9547C6.66041 18.0481 6.54574 18.0981 6.40974 18.1047C6.27374 18.1114 6.15241 18.0614 6.04574 17.9547C5.93908 17.8481 5.88574 17.7301 5.88574 17.6007C5.88574 17.4714 5.93908 17.3534 6.04574 17.2467L11.2917 12.0007L6.04574 6.75472C5.95241 6.66139 5.90241 6.54672 5.89574 6.41072C5.88908 6.27472 5.93908 6.15339 6.04574 6.04672C6.15241 5.94005 6.27041 5.88672 6.39974 5.88672C6.52908 5.88672 6.64708 5.94005 6.75374 6.04672L11.9997 11.2927L17.2457 6.04672C17.3391 5.95339 17.4541 5.90339 17.5907 5.89672C17.7261 5.89005 17.8471 5.94005 17.9537 6.04672C18.0604 6.15339 18.1137 6.27139 18.1137 6.40072C18.1137 6.53005 18.0604 6.64805 17.9537 6.75472L12.7077 12.0007L17.9537 17.2467C18.0471 17.3401 18.0971 17.4551 18.1037 17.5917C18.1104 17.7271 18.0604 17.8481 17.9537 17.9547C17.8471 18.0614 17.7291 18.1147 17.5997 18.1147C17.4704 18.1147 17.3524 18.0614 17.2457 17.9547L11.9997 12.7087Z" fill="black"/>
</svg>
