<svg width="20" height="15" viewBox="0 0 20 15" fill="none" xmlns="http://www.w3.org/2000/svg">
<path d="M10 4.85234C9.27668 4.85234 8.58299 5.14734 8.07153 5.67244C7.56006 6.19755 7.27273 6.90974 7.27273 7.65234C7.27273 8.39495 7.56006 9.10714 8.07153 9.63224C8.58299 10.1573 9.27668 10.4523 10 10.4523C10.7233 10.4523 11.417 10.1573 11.9285 9.63224C12.4399 9.10714 12.7273 8.39495 12.7273 7.65234C12.7273 6.90974 12.4399 6.19755 11.9285 5.67244C11.417 5.14734 10.7233 4.85234 10 4.85234ZM10 12.319C8.79447 12.319 7.63832 11.8273 6.78588 10.9522C5.93344 10.077 5.45455 8.89002 5.45455 7.65234C5.45455 6.41467 5.93344 5.22768 6.78588 4.35251C7.63832 3.47734 8.79447 2.98568 10 2.98568C11.2055 2.98568 12.3617 3.47734 13.2141 4.35251C14.0666 5.22768 14.5455 6.41467 14.5455 7.65234C14.5455 8.89002 14.0666 10.077 13.2141 10.9522C12.3617 11.8273 11.2055 12.319 10 12.319ZM10 0.652344C5.45455 0.652344 1.57273 3.55501 0 7.65234C1.57273 11.7497 5.45455 14.6523 10 14.6523C14.5455 14.6523 18.4273 11.7497 20 7.65234C18.4273 3.55501 14.5455 0.652344 10 0.652344Z" fill="black"/>
</svg>
