<svg width="18" height="19" viewBox="0 0 18 19" fill="none" xmlns="http://www.w3.org/2000/svg">
<path d="M9 14.1523C9.14267 14.1523 9.26167 14.1043 9.357 14.0083C9.45233 13.9123 9.5 13.7937 9.5 13.6523V9.15234C9.5 9.01034 9.452 8.89168 9.356 8.79634C9.26 8.70101 9.141 8.65301 8.999 8.65234C8.857 8.65168 8.73833 8.69968 8.643 8.79634C8.54767 8.89301 8.5 9.01168 8.5 9.15234V13.6523C8.5 13.7943 8.548 13.913 8.644 14.0083C8.74 14.1037 8.859 14.1517 9.001 14.1523M9 7.22934C9.17467 7.22934 9.321 7.17034 9.439 7.05234C9.557 6.93434 9.61567 6.78834 9.615 6.61434C9.61433 6.44034 9.55533 6.29401 9.438 6.17534C9.32067 6.05668 9.17467 5.99768 9 5.99834C8.82533 5.99901 8.67933 6.05801 8.562 6.17534C8.44467 6.29268 8.38567 6.43901 8.385 6.61434C8.38433 6.78968 8.44333 6.93568 8.562 7.05234C8.68067 7.16901 8.82667 7.22801 9 7.22934ZM9.003 18.6523C7.75833 18.6523 6.58833 18.4163 5.493 17.9443C4.39767 17.4717 3.44467 16.8303 2.634 16.0203C1.82333 15.2103 1.18167 14.2583 0.709 13.1643C0.236333 12.0703 0 10.9007 0 9.65534C0 8.41001 0.236333 7.24001 0.709 6.14534C1.181 5.05001 1.82133 4.09701 2.63 3.28634C3.43867 2.47568 4.391 1.83401 5.487 1.36134C6.583 0.888677 7.753 0.652344 8.997 0.652344C10.241 0.652344 11.411 0.888677 12.507 1.36134C13.6023 1.83334 14.5553 2.47401 15.366 3.28334C16.1767 4.09268 16.8183 5.04501 17.291 6.14034C17.7637 7.23568 18 8.40534 18 9.64934C18 10.8933 17.764 12.0633 17.292 13.1593C16.82 14.2553 16.1787 15.2083 15.368 16.0183C14.5573 16.8283 13.6053 17.47 12.512 17.9433C11.4187 18.4167 10.249 18.653 9.003 18.6523ZM9 17.6523C11.2333 17.6523 13.125 16.8773 14.675 15.3273C16.225 13.7773 17 11.8857 17 9.65234C17 7.41901 16.225 5.52734 14.675 3.97734C13.125 2.42734 11.2333 1.65234 9 1.65234C6.76667 1.65234 4.875 2.42734 3.325 3.97734C1.775 5.52734 1 7.41901 1 9.65234C1 11.8857 1.775 13.7773 3.325 15.3273C4.875 16.8773 6.76667 17.6523 9 17.6523Z" fill="black"/>
</svg>
