<svg width="14" height="14" viewBox="0 0 14 14" fill="none" xmlns="http://www.w3.org/2000/svg">
<g clip-path="url(#clip0_314_1429)">
<path d="M4.76 6L9.24 3.75M4.76 8L9.24 10.25M2.75 9.25C3.04547 9.25 3.33806 9.1918 3.61104 9.07873C3.88402 8.96566 4.13206 8.79992 4.34099 8.59099C4.54992 8.38206 4.71566 8.13402 4.82873 7.86104C4.9418 7.58806 5 7.29547 5 7C5 6.70453 4.9418 6.41194 4.82873 6.13896C4.71566 5.86598 4.54992 5.61794 4.34099 5.40901C4.13206 5.20008 3.88402 5.03434 3.61104 4.92127C3.33806 4.8082 3.04547 4.75 2.75 4.75C2.15326 4.75 1.58097 4.98705 1.15901 5.40901C0.737053 5.83097 0.5 6.40326 0.5 7C0.5 7.59674 0.737053 8.16903 1.15901 8.59099C1.58097 9.01295 2.15326 9.25 2.75 9.25ZM11.25 13.5C11.8467 13.5 12.419 13.2629 12.841 12.841C13.2629 12.419 13.5 11.8467 13.5 11.25C13.5 10.6533 13.2629 10.081 12.841 9.65901C12.419 9.23705 11.8467 9 11.25 9C10.6533 9 10.081 9.23705 9.65901 9.65901C9.23705 10.081 9 10.6533 9 11.25C9 11.8467 9.23705 12.419 9.65901 12.841C10.081 13.2629 10.6533 13.5 11.25 13.5ZM11.25 5C11.8467 5 12.419 4.76295 12.841 4.34099C13.2629 3.91903 13.5 3.34674 13.5 2.75C13.5 2.15326 13.2629 1.58097 12.841 1.15901C12.419 0.737053 11.8467 0.5 11.25 0.5C10.6533 0.5 10.081 0.737053 9.65901 1.15901C9.23705 1.58097 9 2.15326 9 2.75C9 3.34674 9.23705 3.91903 9.65901 4.34099C10.081 4.76295 10.6533 5 11.25 5Z" stroke="black" stroke-linecap="round" stroke-linejoin="round"/>
</g>
<defs>
<clipPath id="clip0_314_1429">
<rect width="14" height="14" fill="white"/>
</clipPath>
</defs>
</svg>
