<svg width="17" height="21" viewBox="0 0 17 21" fill="none" xmlns="http://www.w3.org/2000/svg">
<path d="M16 19.6523C16 16.1477 12.0462 13.2988 8.5 13.2988C4.95379 13.2988 1 16.1477 1 19.6523M8.5 10.123C9.6366 10.123 10.7267 9.67682 11.5304 8.88254C12.3341 8.08826 12.7856 7.01098 12.7856 5.8877C12.7856 4.76441 12.3341 3.68713 11.5304 2.89285C10.7267 2.09857 9.6366 1.65234 8.5 1.65234C7.3634 1.65234 6.27334 2.09857 5.46964 2.89285C4.66594 3.68713 4.21443 4.76441 4.21443 5.8877C4.21443 7.01098 4.66594 8.08826 5.46964 8.88254C6.27334 9.67682 7.3634 10.123 8.5 10.123Z" stroke="#ffffff" stroke-width="1.5" stroke-linecap="round" stroke-linejoin="round"/>
</svg>
