<svg width="20" height="20" viewBox="0 0 20 20" fill="none" xmlns="http://www.w3.org/2000/svg">
<path fill-rule="evenodd" clip-rule="evenodd" d="M8.49928 0.890625C7.14387 0.89074 5.80814 1.21499 4.60353 1.83632C3.39893 2.45765 2.36037 3.35804 1.57451 4.46238C0.788656 5.56672 0.278287 6.84297 0.0859852 8.18467C-0.106316 9.52637 0.0250263 10.8946 0.469055 12.1752C0.913084 13.4558 1.65692 14.6117 2.63851 15.5464C3.6201 16.481 4.81098 17.1674 6.11179 17.5482C7.4126 17.929 8.78562 17.9933 10.1163 17.7355C11.447 17.4778 12.6967 16.9056 13.7613 16.0666L17.4133 19.7186C17.6019 19.9008 17.8545 20.0016 18.1167 19.9993C18.3789 19.997 18.6297 19.8919 18.8151 19.7064C19.0005 19.521 19.1057 19.2702 19.108 19.008C19.1102 18.7458 19.0094 18.4932 18.8273 18.3046L15.1753 14.6526C16.1633 13.3992 16.7784 11.893 16.9504 10.3064C17.1223 8.71968 16.8441 7.11665 16.1475 5.68072C15.4509 4.24479 14.3642 3.03398 13.0116 2.18686C11.659 1.33973 10.0952 0.890518 8.49928 0.890625ZM1.99928 9.39062C1.99928 7.66672 2.6841 6.01342 3.90308 4.79443C5.12207 3.57544 6.77537 2.89062 8.49928 2.89062C10.2232 2.89062 11.8765 3.57544 13.0955 4.79443C14.3145 6.01342 14.9993 7.66672 14.9993 9.39062C14.9993 11.1145 14.3145 12.7678 13.0955 13.9868C11.8765 15.2058 10.2232 15.8906 8.49928 15.8906C6.77537 15.8906 5.12207 15.2058 3.90308 13.9868C2.6841 12.7678 1.99928 11.1145 1.99928 9.39062Z" fill="black"/>
</svg>
