<svg width="26" height="26" viewBox="0 0 26 26" fill="none" xmlns="http://www.w3.org/2000/svg">
<path d="M9.99335 13.5104C10.7449 12.8772 12.4758 11.3113 13.9229 7.82984C14.5652 6.28549 15.7484 5.30139 16.8542 4.74323C17.2153 4.56045 17.5175 4.61346 17.8853 4.72108C18.3092 4.84481 18.5217 4.90744 18.7229 4.98739C19.37 5.24237 19.9565 5.63531 20.4432 6.14001C20.8539 6.56727 21.2276 7.03006 21.5601 7.5232C21.9525 8.10737 22.2186 8.77027 22.3405 9.46773C22.3791 9.68474 22.3989 9.90982 22.4371 10.3584C22.4706 10.7478 22.4641 11.061 22.2197 11.3884C21.473 12.3912 20.3028 13.3914 18.6958 13.7411C15.0748 14.53 13.2407 15.9682 12.4892 16.6014M6.13053 13.0127C7.39787 12.5135 8.03155 12.264 8.64093 12.4279C9.25032 12.5918 9.6834 13.1266 10.5474 14.1966L11.9351 15.9152C12.7991 16.9853 13.2314 17.5207 13.2724 18.1623C13.3138 18.806 12.9535 19.3941 12.2328 20.5702L12.0879 20.806L5.87631 13.1131L6.13053 13.0127ZM2.52682 12.3844C3.06352 12.2076 3.33255 12.1192 3.59215 12.0943C4.26829 12.0339 4.94058 12.2474 5.46406 12.6887C5.67443 12.8631 5.86388 13.0977 6.2403 13.5639L11.7239 20.3552C12.1009 20.8222 12.2891 21.0553 12.4173 21.3002C12.7437 21.9223 12.8219 22.6397 12.6324 23.2906C12.5592 23.5462 12.4231 23.7992 12.151 24.3038C11.9408 24.6955 11.8351 24.8906 11.7117 25.001C11.3908 25.2869 10.9161 25.3133 10.5382 25.0694C10.3919 24.9743 10.2459 24.7935 9.95394 24.432L1.98576 14.5635C1.69382 14.2019 1.54785 14.0212 1.48429 13.8563C1.32177 13.4309 1.43808 12.9606 1.77249 12.693C1.90286 12.5896 2.11044 12.5207 2.52682 12.3844Z" stroke="black" stroke-width="1.5" stroke-linecap="round" stroke-linejoin="round"/>
</svg>
