<?xml version="1.0" encoding="UTF-8"?>
<svg id="_레이어_1" data-name="레이어 1" xmlns="http://www.w3.org/2000/svg" viewBox="0 0 50 50">
  <defs>
    <style>
      .cls-1 {
        fill: none;
        stroke: #fff;
        stroke-miterlimit: 10;
        stroke-width: 2.4px;
      }
    </style>
  </defs>
  <path class="cls-1" d="M15.84,22.66h0c1.29,0,2.34,1.05,2.34,2.34v16.07c0,1.29-1.05,2.34-2.34,2.34h0c-1.29,0-2.34-1.05-2.34-2.34V25c0-1.29,1.05-2.34,2.34-2.34Z" transform="translate(-18.02 19.05) rotate(-41.95)"/>
  <path class="cls-1" d="M13.94,26.85l7.85,8.73c.65,.72,1.77,.78,2.49,.13s.78-1.77,.13-2.49l-7.85-8.73c-.65-.72-1.77-.78-2.49-.13s-.78,1.77-.13,2.49Z"/>
  <path class="cls-1" d="M18.91,26l4.25,4.72c.52,.57,1.57,.47,2.35-.23s1-1.74,.48-2.32l-4.25-4.72c-.52-.57-1.57-.47-2.35,.23s-1,1.74-.48,2.32Z"/>
  <rect class="cls-1" x="23.27" y="9.85" width="16.76" height="17.93" rx="4.99" ry="4.99" transform="translate(24.49 -17.3) rotate(48.05)"/>
</svg>