<svg width="19" height="19" viewBox="0 0 19 19" fill="none" xmlns="http://www.w3.org/2000/svg">
<path d="M9.49953 15.7318L4.8945 18.4836C4.69107 18.612 4.47839 18.667 4.25646 18.6487C4.03453 18.6303 3.84034 18.5569 3.67389 18.4285C3.50745 18.3001 3.37799 18.1398 3.28552 17.9475C3.19305 17.7553 3.17455 17.5395 3.23004 17.3003L4.45065 12.0995L0.372703 8.60485C0.187762 8.43974 0.0723589 8.25152 0.0264936 8.04019C-0.0193717 7.82886 -0.00568611 7.62266 0.0675504 7.4216C0.140787 7.22054 0.251751 7.05544 0.400444 6.92629C0.549136 6.79714 0.752571 6.71459 1.01075 6.67863L6.39252 6.21084L8.47311 1.31276C8.56558 1.09262 8.70909 0.927517 8.90365 0.817447C9.09821 0.707378 9.29683 0.652344 9.49953 0.652344C9.70222 0.652344 9.90085 0.707378 10.0954 0.817447C10.29 0.927517 10.4335 1.09262 10.5259 1.31276L12.6065 6.21084L17.9883 6.67863C18.2472 6.71532 18.4507 6.79787 18.5986 6.92629C18.7466 7.0547 18.8575 7.21981 18.9315 7.4216C19.0055 7.62339 19.0195 7.82996 18.9737 8.04129C18.9278 8.25262 18.812 8.44047 18.6264 8.60485L14.5484 12.0995L15.769 17.3003C15.8245 17.5388 15.806 17.7545 15.7135 17.9475C15.6211 18.1405 15.4916 18.3008 15.3252 18.4285C15.1587 18.5562 14.9645 18.6296 14.7426 18.6487C14.5207 18.6677 14.308 18.6127 14.1046 18.4836L9.49953 15.7318Z" fill="black"/>
</svg>
