<svg width="19" height="21" viewBox="0 0 19 21" fill="none" xmlns="http://www.w3.org/2000/svg">
<path d="M1.35714 19.3524H6.36771V12.7524C6.36771 12.4552 6.47312 12.206 6.68393 12.005C6.89383 11.803 7.15395 11.7021 7.46429 11.7021H11.5357C11.846 11.7021 12.1066 11.803 12.3174 12.005C12.5273 12.206 12.6323 12.4552 12.6323 12.7524V19.3524H17.6429V8.05306C17.6429 7.9196 17.6125 7.79827 17.5519 7.68907C17.4913 7.57987 17.4085 7.48454 17.3036 7.40307L9.99671 2.12781C9.85738 2.01168 9.69181 1.95361 9.5 1.95361C9.30819 1.95361 9.14307 2.01168 9.00464 2.12781L1.69643 7.40307C1.59238 7.48627 1.5096 7.5816 1.44807 7.68907C1.38655 7.79653 1.35624 7.91786 1.35714 8.05306V19.3524ZM0 19.3524V8.05306C0 7.72027 0.0778094 7.40524 0.233428 7.10798C0.389048 6.81072 0.603476 6.5659 0.876714 6.3735L8.18493 1.07223C8.56764 0.792307 9.00464 0.652344 9.49593 0.652344C9.98721 0.652344 10.4269 0.792307 10.8151 1.07223L18.1233 6.3722C18.3974 6.5646 18.6119 6.80986 18.7666 7.10798C18.9222 7.40524 19 7.72027 19 8.05306V19.3524C19 19.7008 18.8647 20.0045 18.5942 20.2637C18.3237 20.5228 18.0066 20.6523 17.6429 20.6523H12.3717C12.0605 20.6523 11.7999 20.5518 11.59 20.3508C11.3801 20.1488 11.2751 19.8992 11.2751 19.602V13.0033H7.72486V19.602C7.72486 19.9001 7.6199 20.1497 7.41 20.3508C7.2001 20.5518 6.93998 20.6523 6.62964 20.6523H1.35714C0.993429 20.6523 0.676309 20.5228 0.405785 20.2637C0.135262 20.0045 0 19.7008 0 19.3524Z" fill="#ffffff"/>
</svg>
